<svg width="280" height="48" viewBox="0 0 280 48" fill="none" xmlns="http://www.w3.org/2000/svg">
<g clip-path="url(#clip0_1550_3734)">
<path d="M44 0H4C1.79086 0 0 1.79086 0 4V44C0 46.2091 1.79086 48 4 48H44C46.2091 48 48 46.2091 48 44V4C48 1.79086 46.2091 0 44 0Z" fill="white"/>
<path d="M24.3177 16.8083L18.3362 27.1709L24.0001 36.9869L31.5018 23.9934L39.0001 11H27.6689L24.3177 16.8083Z" fill="#1697F6"/>
<path d="M16.5017 23.9934L16.8946 24.6768L22.49 14.9804L24.7891 11H24H9L16.5017 23.9934Z" fill="#AEDDFF"/>
<path d="M27.6689 11C30.5043 20.3308 24.0001 36.9869 24.0001 36.9869L18.3362 27.1709L27.6689 11Z" fill="#1867C0"/>
<path d="M24.7892 11C12.8432 11 16.8947 24.6768 16.8947 24.6768L24.7892 11Z" fill="#7BC6FF"/>
<path d="M102 0H62C59.7909 0 58 1.79086 58 4V44C58 46.2091 59.7909 48 62 48H102C104.209 48 106 46.2091 106 44V4C106 1.79086 104.209 0 102 0Z" fill="white"/>
<path d="M85.4644 11L82 17.001L78.5356 11H67L82 36.9814L97 11H85.4644Z" fill="#4DBA87"/>
<path d="M85.4644 11L82 17.001L78.5356 11H73.001L82 26.5884L90.999 11H85.4644Z" fill="white"/>
<path d="M160 0H120C117.791 0 116 1.79086 116 4V44C116 46.2091 117.791 48 120 48H160C162.209 48 164 46.2091 164 44V4C164 1.79086 162.209 0 160 0Z" fill="white"/>
<path d="M128.16 40.3199C125.951 40.3199 124.16 38.529 124.16 36.3199V12.6399C124.16 10.4308 125.951 8.63989 128.16 8.63989H151.84C154.049 8.63989 155.84 10.4308 155.84 12.6399V36.3199C155.84 38.529 154.049 40.3199 151.84 40.3199H128.16Z" fill="#FFD600"/>
<path d="M144.873 32.3533C145.482 33.3425 146.144 34.2902 147.546 34.2902C148.723 34.2902 149.341 33.705 149.341 32.8954C149.341 31.9265 148.702 31.5825 147.407 31.0184L146.697 30.7157C144.647 29.8462 143.284 28.7568 143.284 26.4556C143.284 24.3348 144.908 22.7209 147.445 22.7209C149.251 22.7209 150.549 23.3465 151.486 24.9851L149.273 26.3993C148.787 25.5298 148.26 25.1875 147.445 25.1875C146.612 25.1875 146.085 25.7129 146.085 26.3993C146.085 27.2476 146.613 27.5908 147.832 28.1161L148.542 28.4189C150.958 29.4476 152.32 30.4983 152.32 32.8602C152.32 35.4052 150.31 36.8 147.612 36.8C144.973 36.8 143.474 35.4756 142.64 33.8361L144.873 32.3533ZM134.678 32.4255C135.123 33.2228 135.8 33.8361 136.773 33.8361C137.704 33.8361 138.24 33.4683 138.24 32.0383V22.72H141.173V32.4889C141.173 35.4518 139.454 36.8 136.944 36.8C134.677 36.8 133.04 35.2635 132.373 33.8361L134.678 32.4255Z" fill="#000001"/>
<path d="M218 0H178C175.791 0 174 1.79086 174 4V44C174 46.2091 175.791 48 178 48H218C220.209 48 222 46.2091 222 44V4C222 1.79086 220.209 0 218 0Z" fill="white"/>
<path d="M209 9.59985H187C184.791 9.59985 183 11.3907 183 13.5999V35.5999C183 37.809 184.791 39.5998 187 39.5998H209C211.209 39.5998 213 37.809 213 35.5999V13.5999C213 11.3907 211.209 9.59985 209 9.59985Z" fill="#1976D2"/>
<path d="M200.908 22.9333H189.855V25.6533H193.82V37.9333H196.96V25.6533H200.908V22.9333Z" fill="#141414"/>
<path d="M210.661 26.3364C210.661 26.3364 209.172 25.3431 207.489 25.3431C205.806 25.3431 205.2 26.1431 205.2 26.9981C205.2 29.2047 211.351 28.9839 211.351 33.4247C211.351 40.2656 201.972 37.2314 201.972 37.2314V33.9497C201.972 33.9497 203.766 35.3014 205.916 35.3014C208.067 35.3014 207.986 33.8947 207.986 33.7014C207.986 31.6606 201.89 31.6606 201.89 27.1364C201.89 20.9856 210.771 23.4122 210.771 23.4122L210.661 26.3364Z" fill="#141414"/>
<path d="M276 0H236C233.791 0 232 1.79086 232 4V44C232 46.2091 233.791 48 236 48H276C278.209 48 280 46.2091 280 44V4C280 1.79086 278.209 0 276 0Z" fill="white"/>
<mask id="mask0_1550_3734" style="mask-type:luminance" maskUnits="userSpaceOnUse" x="246" y="9" width="21" height="30">
<path d="M266.004 9H246V39H266.004V9Z" fill="white"/>
</mask>
<g mask="url(#mask0_1550_3734)">
<path d="M251.002 39C253.762 39 256.002 36.76 256.002 34V29H251.002C248.242 29 246.002 31.24 246.002 34C246.002 36.76 248.242 39 251.002 39Z" fill="#0ACF83"/>
<path d="M246.002 24C246.002 21.24 248.242 19 251.002 19H256.002V29H251.002C248.242 29 246.002 26.76 246.002 24Z" fill="#A259FF"/>
<path d="M246.002 14C246.002 11.24 248.242 9 251.002 9H256.002V19H251.002C248.242 19 246.002 16.76 246.002 14Z" fill="#F24E1E"/>
<path d="M256.002 9H261.002C263.762 9 266.002 11.24 266.002 14C266.002 16.76 263.762 19 261.002 19H256.002V9Z" fill="#FF7262"/>
<path d="M266.002 24C266.002 26.76 263.762 29 261.002 29C258.242 29 256.002 26.76 256.002 24C256.002 21.24 258.242 19 261.002 19C263.762 19 266.002 21.24 266.002 24Z" fill="#1ABCFE"/>
</g>
</g>
<defs>
<clipPath id="clip0_1550_3734">
<rect width="280" height="48" fill="white"/>
</clipPath>
</defs>
</svg>
