<?xml version="1.0" standalone="no"?>
<!DOCTYPE svg PUBLIC "-//W3C//DTD SVG 20010904//EN"
 "http://www.w3.org/TR/2001/REC-SVG-20010904/DTD/svg10.dtd">
<svg version="1.0" xmlns="http://www.w3.org/2000/svg"
 width="163.000000pt" height="131.000000pt" viewBox="0 0 163.000000 131.000000"
 preserveAspectRatio="xMidYMid meet">

<g transform="translate(0.000000,131.000000) scale(0.100000,-0.100000)"
fill="#000000" stroke="none">
<path d="M977 973 c-4 -3 -7 -18 -7 -32 0 -25 -3 -26 -58 -27 -32 -1 -67 -6
-78 -13 -16 -10 -15 -10 11 -5 17 3 38 8 48 11 13 3 17 -2 17 -21 0 -24 -3
-26 -52 -27 -29 -1 -56 -1 -60 0 -4 0 -12 -8 -17 -18 -9 -16 -2 -22 55 -46 36
-15 67 -25 70 -22 3 3 9 27 14 54 l8 48 1 -60 1 -60 106 -53 107 -53 -7 32
c-3 17 -6 51 -6 75 0 44 -1 45 -70 89 -60 39 -70 49 -70 74 0 16 5 31 12 33 6
2 8 10 4 16 -8 13 -19 15 -29 5z m41 -171 c3 -28 0 -33 -15 -30 -12 2 -19 14
-21 36 -3 28 0 33 15 30 12 -2 19 -14 21 -36z m82 -48 c0 -17 -6 -24 -20 -24
-15 0 -20 7 -20 28 0 16 3 32 7 35 11 12 33 -14 33 -39z"/>
<path d="M990 811 c0 -11 5 -23 10 -26 6 -4 10 5 10 19 0 14 -4 26 -10 26 -5
0 -10 -9 -10 -19z"/>
<path d="M1070 766 c0 -9 5 -16 10 -16 6 0 10 4 10 9 0 6 -4 13 -10 16 -5 3
-10 -1 -10 -9z"/>
<path d="M305 858 c12 -42 76 -168 85 -168 6 0 54 11 107 26 131 34 239 41
326 20 95 -22 147 -50 147 -80 0 -25 11 -32 105 -69 43 -17 61 -29 63 -44 3
-21 25 -34 108 -63 l52 -18 37 38 37 37 -34 7 c-18 3 -141 59 -273 124 -245
121 -316 150 -440 176 -84 19 -223 36 -283 36 -40 0 -43 -2 -37 -22z"/>
<path d="M590 695 c-95 -21 -191 -51 -314 -96 -129 -48 -251 -102 -216 -95 14
2 54 10 90 17 36 7 139 13 230 13 215 1 296 -16 483 -101 160 -72 235 -88 417
-86 121 0 172 5 230 21 l75 20 -60 1 c-71 1 -209 24 -280 47 -91 29 -169 72
-260 145 -138 109 -165 122 -254 126 -42 1 -105 -4 -141 -12z"/>
</g>
</svg>
